<svg width="400" height="77" viewBox="0 0 400 77" fill="none" xmlns="http://www.w3.org/2000/svg">
<g clip-path="url(#clip0_5877_17083)">
<path d="M95.4558 17.9863C97.1303 17.9863 98.65 18.165 100.014 18.5217C101.377 18.8785 102.394 19.3185 103.064 19.842L101.7 26.3369C101.174 26.0037 100.576 25.7424 99.906 25.5518C99.2361 25.3615 98.4466 25.2663 97.5374 25.2663C95.6712 25.2663 94.1878 25.6827 93.0875 26.5153C91.9866 27.3481 91.4367 28.7637 91.4367 30.7617V35.6867L91.8675 37.6137V70.0164H82.0342V30.0485C82.0342 28.0499 82.3693 26.2894 83.0391 24.767C83.709 23.2445 84.6419 21.9836 85.8382 20.9844C87.0345 19.9851 88.4582 19.2358 90.109 18.7359C91.7595 18.2365 93.542 17.9866 95.4561 17.9866L95.4558 17.9863ZM102.777 34.3307V41.6102H75.7891V34.3307H102.777ZM113.615 29.1918C111.557 29.1918 110.026 28.7515 109.021 27.8713C108.016 26.991 107.514 25.6944 107.514 23.9813C107.514 22.2211 108.016 20.9006 109.021 20.0204C110.026 19.1398 111.557 18.6996 113.615 18.6996C115.673 18.6996 117.204 19.1398 118.209 20.0204C119.213 20.9006 119.716 22.2211 119.716 23.9813C119.716 25.6944 119.213 26.991 118.209 27.8713C117.204 28.7515 115.673 29.1918 113.615 29.1918ZM118.496 34.3307V70.0161H108.663V34.3307H118.496ZM128.904 70.0161V34.3307H137.445L138.091 41.3247C139.048 38.8507 140.447 36.9473 142.289 35.6149C144.132 34.2825 146.441 33.6164 149.216 33.6164C150.029 33.6164 150.771 33.6879 151.441 33.8308C152.111 33.9734 152.661 34.164 153.092 34.4015L151.943 42.6092C151.465 42.4189 150.879 42.276 150.185 42.1808C149.491 42.0857 148.594 42.0382 147.493 42.0382C146.058 42.0382 144.67 42.3833 143.33 43.0733C141.991 43.763 140.89 44.8097 140.029 46.2134C139.168 47.6169 138.737 49.3895 138.737 51.5307V70.0159H128.904L128.904 70.0161ZM175.127 70.7297C171.347 70.7297 168.057 69.9923 165.258 68.5173C162.459 67.0422 160.293 64.925 158.762 62.1652C157.231 59.4054 156.465 56.075 156.465 52.1732C156.465 48.2715 157.231 44.9409 158.762 42.1811C160.293 39.4216 162.435 37.3041 165.186 35.8291C167.938 34.3543 171.084 33.6164 174.625 33.6164C178.261 33.6164 181.348 34.3421 183.884 35.7935C186.42 37.2444 188.358 39.2194 189.698 41.7175C191.038 44.2151 191.707 47.0584 191.707 50.2462C191.707 51.198 191.683 52.1019 191.636 52.9582C191.588 53.8149 191.516 54.5761 191.42 55.2422H162.782V48.4618H187.114L182.376 50.1746C182.376 47.1769 181.695 44.8696 180.331 43.2517C178.967 41.6343 177.041 40.8253 174.553 40.8253C172.735 40.8253 171.168 41.2534 169.852 42.1101C168.536 42.9665 167.543 44.2393 166.873 45.9284C166.203 47.6174 165.868 49.7468 165.868 52.3163C165.868 54.8378 166.239 56.9195 166.981 58.5612C167.722 60.2027 168.775 61.4278 170.139 62.2368C171.502 63.0457 173.141 63.4502 175.056 63.4502C177.161 63.4502 178.86 63.0457 180.151 62.2368C181.443 61.4278 182.448 60.3098 183.166 58.8822L190.99 61.88C190.224 63.7357 189.064 65.3294 187.509 66.6619C185.954 67.9943 184.111 69.0055 181.982 69.6954C179.853 70.3854 177.568 70.7302 175.127 70.7302L175.127 70.7297ZM214.388 70.7297C210.752 70.7297 207.438 70.0874 204.447 68.8027C201.457 67.518 199.029 65.7101 197.162 63.3786L202.833 57.6688C203.981 59.3816 205.512 60.7856 207.426 61.8795C209.341 62.9739 211.613 63.5212 214.245 63.5212C216.111 63.5212 217.607 63.2474 218.731 62.7001C219.856 62.1533 220.418 61.285 220.418 60.0951C220.418 59.3341 220.155 58.68 219.628 58.1324C219.102 57.5853 218.049 57.1451 216.47 56.8121L210.154 55.5274C205.991 54.6708 203.036 53.3741 201.29 51.6375C199.543 49.9008 198.67 47.6524 198.67 44.8929C198.67 42.9418 199.256 41.1103 200.428 39.397C201.601 37.6842 203.359 36.2924 205.704 35.2221C208.048 34.1515 210.967 33.6161 214.461 33.6161C218.049 33.6161 221.172 34.1751 223.827 35.2936C226.483 36.4116 228.576 38.0651 230.107 40.2536L224.222 45.9637C223.169 44.2984 221.794 43.0253 220.095 42.1453C218.396 41.2651 216.614 40.8248 214.747 40.8248C213.408 40.8248 212.259 40.9677 211.302 41.2529C210.346 41.5386 209.627 41.9312 209.149 42.4308C208.671 42.9304 208.431 43.561 208.431 44.322C208.431 45.0835 208.766 45.7373 209.436 46.2849C210.106 46.832 211.326 47.2961 213.097 47.6765L220.418 49.1751C223.959 49.8889 226.495 51.0904 228.026 52.7796C229.557 54.4685 230.323 56.5026 230.323 58.8814C230.323 61.1654 229.713 63.1994 228.492 64.9838C227.272 66.7679 225.478 68.1719 223.109 69.1947C220.741 70.2176 217.834 70.7289 214.388 70.7289V70.7297ZM250.851 23.4104V58.3823C250.851 60.0951 251.293 61.3443 252.178 62.1294C253.064 62.9145 254.272 63.3071 255.803 63.3071C256.999 63.3071 258.052 63.1287 258.962 62.7719C259.871 62.4151 260.684 61.9274 261.402 61.3091L262.981 67.8037C261.832 68.7078 260.397 69.4216 258.674 69.9451C256.952 70.4683 255.133 70.7299 253.219 70.7299C250.827 70.7299 248.709 70.3732 246.867 69.6594C245.025 68.9458 243.59 67.8037 242.561 66.2338C241.532 64.6634 241.018 62.5699 241.018 59.9531V26.123L250.851 23.4109L250.851 23.4104ZM262.335 34.3304V41.6099H234.414V34.3304H262.335ZM285.375 33.6164C289.012 33.6164 292.205 34.354 294.957 35.8291C297.708 37.3041 299.862 39.4216 301.417 42.1811C302.972 44.9409 303.749 48.2715 303.749 52.1732C303.749 56.0271 302.972 59.3461 301.417 62.1294C299.862 64.9128 297.708 67.0422 294.957 68.5173C292.205 69.992 289.012 70.7297 285.375 70.7297C281.786 70.7297 278.604 69.9923 275.829 68.5173C273.053 67.0422 270.888 64.9128 269.333 62.1294C267.778 59.3461 267 56.0271 267 52.1732C267 48.2715 267.778 44.9409 269.333 42.1811C270.888 39.4216 273.053 37.3041 275.829 35.8291C278.604 34.3543 281.786 33.6164 285.375 33.6164ZM285.375 40.8964C283.556 40.8964 282.013 41.3128 280.745 42.1456C279.477 42.9781 278.508 44.2273 277.838 45.8927C277.169 47.558 276.834 49.6514 276.834 52.1732C276.834 54.6949 277.169 56.7886 277.838 58.4539C278.508 60.1192 279.477 61.3684 280.745 62.2007C282.013 63.0333 283.556 63.4499 285.375 63.4499C287.145 63.4499 288.664 63.0333 289.933 62.2007C291.201 61.3684 292.17 60.1192 292.84 58.4539C293.509 56.7886 293.844 54.6949 293.844 52.1732C293.844 49.6514 293.509 47.558 292.84 45.8927C292.17 44.2273 291.201 42.9781 289.933 42.1456C288.664 41.3128 287.145 40.8964 285.375 40.8964ZM312.004 70.0159V34.3304H320.545L321.191 41.3244C322.148 38.8504 323.547 36.9471 325.39 35.6146C327.232 34.2822 329.541 33.6161 332.316 33.6161C333.13 33.6161 333.871 33.6877 334.541 33.8305C335.211 33.9731 335.762 34.1637 336.192 34.4012L335.043 42.6089C334.565 42.4186 333.979 42.2757 333.285 42.1806C332.591 42.0854 331.694 42.038 330.594 42.038C329.158 42.038 327.77 42.3831 326.43 43.073C325.091 43.7627 323.99 44.8094 323.129 46.2131C322.268 47.6166 321.837 49.3893 321.837 51.5304V70.0156H312.004L312.004 70.0159ZM342.293 70.0159V34.3304H351.121L351.48 40.7535C352.676 38.3746 354.315 36.5906 356.397 35.4007C358.478 34.2112 360.787 33.6164 363.323 33.6164C365.907 33.6164 368.24 34.2112 370.321 35.4007C372.403 36.5906 373.97 38.3508 375.022 40.6822C375.788 39.1123 376.817 37.8034 378.109 36.7567C379.401 35.71 380.837 34.9249 382.415 34.4015C383.994 33.8782 385.598 33.6164 387.224 33.6164C389.569 33.6164 391.71 34.0921 393.648 35.044C395.587 35.9952 397.129 37.4228 398.278 39.3259C399.427 41.2293 400 43.6559 400 46.6059V70.0159H390.167V48.5329C390.167 45.916 389.593 44.0603 388.445 42.9659C387.296 41.8715 385.813 41.3244 383.995 41.3244C382.559 41.3244 381.231 41.6815 380.011 42.395C378.791 43.1088 377.834 44.1674 377.14 45.5712C376.446 46.9749 376.099 48.7235 376.099 50.8171V70.0159H366.266V48.5329C366.266 45.916 365.68 44.0603 364.507 42.9659C363.335 41.8715 361.84 41.3244 360.022 41.3244C358.777 41.3244 357.545 41.6576 356.325 42.3237C355.105 42.9898 354.1 44.0367 353.311 45.4641C352.521 46.8917 352.126 48.7709 352.126 51.1023V70.0159H342.293H342.293Z" fill="white"/>
<path fill-rule="evenodd" clip-rule="evenodd" d="M18.7844 17.794C5.92015 18.4227 -0.556894 30.2065 0.0375257 45.9333C1.64859 33.6366 9.93209 28.3728 24.8886 30.1429C38.5608 31.452 45.5235 29.0983 49.6775 19.3109C51.8512 13.3172 52.7538 6.88057 52.386 0C50.3265 13.0715 42.0913 17.8992 30.6694 18.1213C22.7462 17.9032 18.7844 17.794 18.7844 17.794Z" fill="url(#paint0_linear_5877_17083)"/>
<path fill-rule="evenodd" clip-rule="evenodd" d="M17.1239 34.9646C10.4915 37.5932 9.85014 41.793 15.2005 47.5635C25.6375 47.5739 30.8561 47.5789 30.8561 47.5789C33.507 47.6963 35.6402 46.0673 37.2564 42.691C40.2626 37.1455 41.7657 34.373 41.7657 34.373C25.3376 34.7672 17.1239 34.9646 17.1239 34.9646Z" fill="url(#paint1_linear_5877_17083)"/>
<path fill-rule="evenodd" clip-rule="evenodd" d="M18.0661 35.2543C33.8676 34.6659 41.7683 34.372 41.7683 34.372C25.108 34.3089 16.7779 34.2773 16.7779 34.2773C9.76903 35.099 1.48953 43.2852 3.91626 53.1877C4.91691 56.7405 8.54927 63.2572 17.3494 76.9997C21.6004 69.9108 23.7256 66.3663 23.7256 66.3663C25.3383 63.9712 22.6133 57.8598 15.5506 48.0327C11.326 42.5998 13.2817 35.398 18.0661 35.2541V35.2543Z" fill="url(#paint2_linear_5877_17083)"/>
</g>
<defs>
<linearGradient id="paint0_linear_5877_17083" x1="0.567173" y1="46.5387" x2="52.9892" y2="0.68994" gradientUnits="userSpaceOnUse">
<stop stop-color="#EE3148"/>
<stop offset="1" stop-color="#E3953B"/>
</linearGradient>
<linearGradient id="paint1_linear_5877_17083" x1="11.6182" y1="41.0803" x2="41.7929" y2="40.9556" gradientUnits="userSpaceOnUse">
<stop stop-color="#EE3148"/>
<stop offset="1" stop-color="#E3953B"/>
</linearGradient>
<linearGradient id="paint2_linear_5877_17083" x1="17.3494" y1="76.9997" x2="41.7347" y2="55.4011" gradientUnits="userSpaceOnUse">
<stop stop-color="#EF4D42"/>
<stop offset="1" stop-color="#FAC69B"/>
</linearGradient>
<clipPath id="clip0_5877_17083">
<rect width="400" height="77" fill="white"/>
</clipPath>
</defs>
</svg>
